<svg width="1409" height="1409" viewBox="0 0 1409 1409" fill="none" xmlns="http://www.w3.org/2000/svg">
<g clip-path="url(#clip0)">
<path fill-rule="evenodd" clip-rule="evenodd" d="M704.513 470.685C575.812 470.685 471.48 575.018 471.48 703.718C471.48 832.418 575.812 936.751 704.513 936.751C833.213 936.751 937.545 832.418 937.545 703.718C937.545 575.018 833.213 470.685 704.513 470.685ZM350.462 703.718C350.462 508.181 508.976 349.667 704.513 349.667C900.05 349.667 1058.56 508.181 1058.56 703.718C1058.56 899.255 900.05 1057.77 704.513 1057.77C508.976 1057.77 350.462 899.255 350.462 703.718Z" fill="#E5C07B"/>
<path fill-rule="evenodd" clip-rule="evenodd" d="M704.5 -1.80859C737.918 -1.80859 765.009 25.2823 765.009 58.7006V176.117C765.009 209.536 737.918 236.626 704.5 236.626C671.082 236.626 643.991 209.536 643.991 176.117V58.7006C643.991 25.2823 671.082 -1.80859 704.5 -1.80859Z" fill="#E06C75"/>
<path fill-rule="evenodd" clip-rule="evenodd" d="M704.5 1172.37C737.918 1172.37 765.009 1199.46 765.009 1232.87V1350.29C765.009 1383.71 737.918 1410.8 704.5 1410.8C671.082 1410.8 643.991 1383.71 643.991 1350.29V1232.87C643.991 1199.46 671.082 1172.37 704.5 1172.37Z" fill="#E06C75"/>
<path fill-rule="evenodd" clip-rule="evenodd" d="M204.96 204.971C228.59 181.34 266.902 181.34 290.532 204.971L373.898 288.337C397.529 311.967 397.529 350.279 373.898 373.91C350.268 397.54 311.956 397.54 288.325 373.91L204.96 290.544C181.329 266.913 181.329 228.601 204.96 204.971Z" fill="#C678DD"/>
<path fill-rule="evenodd" clip-rule="evenodd" d="M1035.1 1035.1C1058.73 1011.47 1097.04 1011.47 1120.67 1035.1L1204.04 1118.46C1227.67 1142.09 1227.67 1180.41 1204.04 1204.04C1180.41 1227.67 1142.09 1227.67 1118.46 1204.04L1035.1 1120.67C1011.47 1097.04 1011.47 1058.73 1035.1 1035.1Z" fill="#C678DD"/>
<path fill-rule="evenodd" clip-rule="evenodd" d="M-1.79785 704.5C-1.79785 671.082 25.293 643.991 58.7114 643.991H176.128C209.546 643.991 236.637 671.082 236.637 704.5C236.637 737.919 209.546 765.01 176.128 765.01H58.7114C25.293 765.01 -1.79785 737.919 -1.79785 704.5Z" fill="#61AFEF"/>
<path fill-rule="evenodd" clip-rule="evenodd" d="M1172.37 704.5C1172.37 671.082 1199.46 643.991 1232.87 643.991H1350.29C1383.71 643.991 1410.8 671.082 1410.8 704.5C1410.8 737.919 1383.71 765.01 1350.29 765.01H1232.87C1199.46 765.01 1172.37 737.919 1172.37 704.5Z" fill="#61AFEF"/>
<path fill-rule="evenodd" clip-rule="evenodd" d="M373.898 1035.1C397.529 1058.73 397.529 1097.04 373.898 1120.67L290.532 1204.04C266.902 1227.67 228.59 1227.67 204.96 1204.04C181.329 1180.41 181.329 1142.09 204.96 1118.46L288.325 1035.1C311.956 1011.47 350.268 1011.47 373.898 1035.1Z" fill="#98C379"/>
<path fill-rule="evenodd" clip-rule="evenodd" d="M1204.04 204.971C1227.67 228.601 1227.67 266.913 1204.04 290.544L1120.67 373.91C1097.04 397.54 1058.73 397.54 1035.1 373.91C1011.47 350.279 1011.47 311.967 1035.1 288.337L1118.46 204.971C1142.09 181.34 1180.41 181.34 1204.04 204.971Z" fill="#98C379"/>
</g>
<defs>
<clipPath id="clip0">
<rect width="1409" height="1409" fill="white"/>
</clipPath>
</defs>
</svg>
